<?xml version="1.0" encoding="UTF-8"?>
<svg version="1.1" xmlns="http://www.w3.org/2000/svg" width="505" height="517">
<path d="M0 0 C12.21 0 24.42 0 37 0 C37 1.32 37 2.64 37 4 C36.01 4.66 35.02 5.32 34 6 C32.96000182 13.48099528 35.73853283 19.61542145 38.4375 26.5 C38.8927002 27.69270508 39.34790039 28.88541016 39.81689453 30.11425781 C40.75466627 32.57090055 41.69738471 35.02566064 42.64501953 37.47851562 C44.23210028 41.60320981 45.77415665 45.74346085 47.3112793 49.88696289 C51.47576262 61.09579832 55.78196759 72.24971288 60.11425781 83.39453125 C63.10944097 91.1020577 66.08154587 98.81791074 69.03125 106.54296875 C70.05851577 109.22929106 71.0859884 111.9155342 72.11346436 114.60177612 C72.78505203 116.3600083 73.45535125 118.11873319 74.12432861 119.87796021 C75.06137323 122.34178325 76.00290098 124.80385078 76.9453125 127.265625 C77.22499878 128.0047966 77.50468506 128.7439682 77.79284668 129.50553894 C78.98077749 132.59781822 80.15378129 135.23067193 82 138 C82.36738281 137.01 82.36738281 137.01 82.7421875 136 C85.21506905 129.45112747 87.82189742 122.97174399 90.52563477 116.51513672 C91.39013328 114.44762233 92.24861153 112.37758127 93.10131836 110.30517578 C95.16124015 105.31065055 97.27166917 100.37115193 99.6015625 95.49609375 C99.99625732 94.62992432 100.39095215 93.76375488 100.79760742 92.87133789 C101.52845045 91.27080889 102.29423707 89.6855176 103.1027832 88.12280273 C105.40504207 82.93460572 104.94586232 79.71391545 103.08984375 74.37109375 C102.08658237 71.897481 101.05919478 69.44866969 100 67 C99.48675086 65.75093425 98.97658069 64.50059895 98.46948242 63.24902344 C96.89210973 59.37903619 95.26243871 55.53238054 93.625 51.6875 C92.46603097 48.95763062 91.30877181 46.22704042 90.15234375 43.49609375 C89.87346817 42.83848053 89.59459259 42.18086731 89.30726624 41.50332642 C87.77884686 37.88715291 86.29585824 34.25888887 84.87890625 30.59765625 C81.31046448 21.38545252 77.41724856 12.03592735 69.2578125 5.95703125 C68.51273437 5.31121094 67.76765625 4.66539062 67 4 C67 2.68 67 1.36 67 0 C78.88 0 90.76 0 103 0 C103.495 1.98 103.495 1.98 104 4 C103.01 4.66 102.02 5.32 101 6 C99.23727972 17.58359042 107.29089796 30.77561559 111.75 41.25 C112.35848753 42.68862679 112.96656305 44.12742791 113.57421875 45.56640625 C115.04475064 49.04629321 116.52079035 52.52379339 118 56 C119.41912908 52.08422129 120.83483478 48.16721282 122.25 44.25 C122.64574219 43.15816406 123.04148437 42.06632812 123.44921875 40.94140625 C124.64393872 37.63144437 125.82596086 34.31735169 127 31 C127.38599365 29.91267578 127.7719873 28.82535156 128.16967773 27.70507812 C128.53005127 26.66287109 128.8904248 25.62066406 129.26171875 24.546875 C129.58358154 23.62229492 129.90544434 22.69771484 130.23706055 21.74511719 C131.5026894 17.19128332 131.96522325 12.65062111 131 8 C128.64167228 5.52791204 128.64167228 5.52791204 126 4 C126 2.68 126 1.36 126 0 C134.58 0 143.16 0 152 0 C152.33 1.32 152.66 2.64 153 4 C152.46890625 4.37511719 151.9378125 4.75023437 151.390625 5.13671875 C139.54877733 13.71557555 135.82023263 25.76840659 130.9375 39 C130.14155562 41.14249954 129.34439186 43.28454222 128.54702759 45.42651367 C128.03881706 46.79560515 127.53289034 48.16554682 127.02938843 49.53637695 C125.77443878 52.95095897 124.45485594 56.32557524 123.06640625 59.6875 C121.15557765 65.6229676 123.8216526 70.32283071 126.16796875 75.8359375 C126.48526443 76.59234528 126.80256012 77.34875305 127.12947083 78.12808228 C128.14445142 80.54558406 129.16567221 82.96038543 130.1875 85.375 C131.51627804 88.52782497 132.84248965 91.68172438 134.16796875 94.8359375 C134.49392029 95.61054825 134.81987183 96.385159 135.15570068 97.1832428 C137.73874414 103.33712819 140.23011604 109.52400878 142.69360352 115.7265625 C144.67073543 120.68066167 146.72935999 125.6000288 148.8046875 130.51367188 C151 135.78144182 151 135.78144182 151 138 C151.66 138 152.32 138 153 138 C153.16145508 137.44054687 153.32291016 136.88109375 153.48925781 136.3046875 C155.69572637 128.79484651 158.19571929 121.39780275 160.75 114 C160.96799255 113.36570068 161.18598511 112.73140137 161.4105835 112.07788086 C164.38954859 103.41764856 167.47864679 94.81654143 171.01855469 86.3671875 C172.47283938 82.81030119 173.58282915 79.85777391 173 76 C170.77639103 73.89342308 168.73477132 72.36738566 166 71 C166.33 69.35 166.66 67.7 167 66 C170.96 66 174.92 66 179 66 C179.33 64.35 179.66 62.7 180 61 C180.42762341 59.6895839 180.88851404 58.38953149 181.3828125 57.1027832 C181.6597998 56.3746492 181.93678711 55.6465152 182.22216797 54.89631653 C182.52010254 54.12228989 182.81803711 53.34826324 183.125 52.55078125 C183.75569501 50.88104312 184.38588734 49.21111505 185.015625 47.54101562 C186.00441516 44.93026695 186.99671341 42.32105334 187.99804688 39.71508789 C188.96804162 37.18517833 189.92250247 34.64982154 190.875 32.11328125 C191.17293457 31.34937576 191.47086914 30.58547028 191.77783203 29.79841614 C194.22745273 23.21955825 195.70639823 16.53199116 194.3125 9.5625 C192.87828856 6.7623729 191.48732485 5.82403822 189 4 C189 2.68 189 1.36 189 0 C197.91 0 206.82 0 216 0 C215.67 1.65 215.34 3.3 215 5 C213.58979157 5.90656256 212.17531422 6.80732338 210.73779297 7.66992188 C203.87891083 12.91959733 200.3927946 21.96402742 197.5 29.8125 C197.12617188 30.79500732 196.75234375 31.77751465 196.3671875 32.78979492 C192.84010997 42.16909186 189.65984439 51.66522914 186.61328125 61.21020508 C186 63 186 63 185 65 C186.33454224 65.029729 186.33454224 65.029729 187.69604492 65.06005859 C251.91116585 66.55969563 251.91116585 66.55969563 267.375 80.6875 C273.65961202 87.45456709 276.10840595 95.86679847 276 105 C275.11156545 116.96213665 271.146102 125.80756457 262.38671875 134.03125 C255.1731198 139.98158367 246.04943609 143.80807039 237 146 C238.59328125 146.70962891 238.59328125 146.70962891 240.21875 147.43359375 C259.30028124 156.22292253 264.78800996 169.64495407 272.40625 188.3125 C272.86238174 189.42825157 272.86238174 189.42825157 273.32772827 190.56654358 C274.86694045 194.33606285 276.3945039 198.10956721 277.90087891 201.89233398 C283.06323672 216.16489885 283.06323672 216.16489885 293 227 C295.68084404 227.6408587 298.23845677 227.7698714 301 228 C300.67 229.65 300.34 231.3 300 233 C291.05319385 235.089273 281.23128114 235.34013006 273 231 C263.7026572 223.74353733 259.15993106 211.36546366 254.9375 200.75 C254.41231506 199.45482702 253.88610245 198.16007031 253.35888672 196.86572266 C250.97075102 190.98725621 248.63585238 185.08838272 246.33056641 179.17700195 C240.23973976 162.67014351 240.23973976 162.67014351 227.89013672 151.02612305 C221.0340416 148.96556759 214.5101719 148.46421994 207.375 148.3125 C206.27542969 148.27833984 205.17585937 148.24417969 204.04296875 148.20898438 C201.36208137 148.12739215 198.68148452 148.057959 196 148 C196.08463107 156.46732303 196.17960125 164.93444183 196.28752708 173.40149689 C196.3373296 177.3337099 196.3836601 181.26589813 196.421875 185.19824219 C196.45893172 188.99795202 196.50534492 192.79744595 196.55806351 196.5969696 C196.57649976 198.04168383 196.59164683 199.48644414 196.60334396 200.93122864 C196.21475391 213.75578069 196.21475391 213.75578069 201.5 224.875 C202.325 225.57625 203.15 226.2775 204 227 C206 229 206 229 206 232 C192.8 232 179.6 232 166 232 C166 230.68 166 229.36 166 228 C167.3921875 227.195625 167.3921875 227.195625 168.8125 226.375 C173.33739664 223.00350838 173.92125277 219.40998789 175 214 C175.38032941 209.88084764 175.38093667 205.79982188 175.34057617 201.66552734 C175.34101425 200.47413147 175.34145233 199.2827356 175.34190369 198.05523682 C175.34018404 194.82023527 175.32524249 191.58563399 175.30418181 188.35071135 C175.28530084 184.95816031 175.28365565 181.56559962 175.28010559 178.17300415 C175.27081839 171.76297263 175.24625023 165.35309643 175.21605712 158.943133 C175.18240888 151.63955541 175.16600103 144.33597002 175.15097082 137.03233409 C175.11969725 122.02146984 175.06700227 107.01075053 175 92 C174.7719143 92.68750965 174.5438286 93.3750193 174.30883121 94.08336258 C173.26361347 97.23201612 172.21690147 100.38017101 171.17016602 103.52832031 C170.8114164 104.60977325 170.45266678 105.6912262 170.08304596 106.80545044 C167.5178242 114.51569554 164.82007351 122.15225565 161.9375 129.75 C158.54309838 138.78949612 155.24574502 147.85046399 152.15600586 156.99902344 C151.02246672 160.31140977 149.95288567 163.07067149 148 166 C144.375 166.1875 144.375 166.1875 141 166 C137.13192536 157.67270221 133.55507237 149.2405046 130.0625 140.75 C129.52507658 139.44787834 128.98755955 138.14579531 128.44995117 136.84375 C125.86563619 130.5774912 123.30571732 124.30307749 120.8125 118 C117.08269174 108.58027405 113.02215859 99.29771529 109 90 C106.39489271 92.60510729 105.64111812 95.12728055 104.3125 98.5703125 C104.0538063 99.23514648 103.79511261 99.89998047 103.52857971 100.58496094 C102.97165104 102.01708399 102.41696763 103.45008179 101.86428833 104.8838501 C100.40946816 108.6562834 98.93726149 112.42190723 97.46484375 116.1875 C97.1703685 116.94136993 96.87589325 117.69523987 96.57249451 118.47195435 C93.60771343 126.04116489 90.48960083 133.54299596 87.33813477 141.03613281 C84.50064678 147.78379607 81.7469136 154.55880804 79.05859375 161.3671875 C78 164 78 164 77 166 C73.6875 166.3125 73.6875 166.3125 70 166 C67.04610881 162.10707043 65.49526815 157.46525922 63.77734375 152.9296875 C63.47571823 152.14421539 63.17409271 151.35874329 62.86332703 150.54946899 C61.88329169 147.99310485 60.91024887 145.43414468 59.9375 142.875 C59.2592131 141.10081155 58.58066302 139.32672369 57.90185547 137.55273438 C53.67235616 126.48110798 49.52005076 115.38275199 45.43408203 104.25732422 C42.45606453 96.1673555 39.34014402 88.13768509 36.17553711 80.11914062 C33.93839962 74.43808639 31.77473499 68.73768651 29.6875 63 C26.76328366 55.00021732 23.77132216 47.02643539 20.72793579 39.07128906 C20.20933444 37.71232568 19.69343258 36.35232841 19.18051147 34.99121094 C13.59389673 19.08558548 13.59389673 19.08558548 3.125 6.3125 C1.95324219 5.34763672 1.95324219 5.34763672 0.7578125 4.36328125 C0.17773438 3.91339844 -0.40234375 3.46351563 -1 3 C-0.67 2.01 -0.34 1.02 0 0 Z M196 72 C196 95.43 196 118.86 196 143 C222.10103773 143.60912562 222.10103773 143.60912562 245 134 C247.72173397 131.05263005 249.60295361 128.1735606 251.1875 124.5 C251.51105469 123.7678125 251.83460938 123.035625 252.16796875 122.28125 C256.00354442 111.76492985 254.6345968 100.01022669 250 90 C242.68070068 78.78120083 232.68161694 74.8181371 220 72 C212.08 72 204.16 72 196 72 Z " fill="#AA9988" transform="translate(95,126)"/>
</svg>
