<?xml version="1.0" encoding="UTF-8"?>
<svg version="1.1" xmlns="http://www.w3.org/2000/svg" width="505" height="517">
<path d="M0 0 C12.21 0 24.42 0 37 0 C37 1.32 37 2.64 37 4 C36.01 4.66 35.02 5.32 34 6 C33.46997594 11.70232786 34.37705986 16.16550795 36.4375 21.5 C36.84174194 22.59211792 36.84174194 22.59211792 37.25415039 23.70629883 C37.84732691 25.30323577 38.44644842 26.89797415 39.05078125 28.49072266 C40.0087557 31.02314584 40.94402506 33.56300685 41.875 36.10546875 C46.86468605 49.65392821 52.16651527 63.07473756 57.48950195 76.49465942 C61.76320734 87.27146689 65.94990328 98.07175155 69.98242188 108.94165039 C72.4104612 115.47197677 74.92055929 121.96544875 77.5 128.4375 C77.83894287 129.29166504 78.17788574 130.14583008 78.52709961 131.02587891 C79.81034749 134.78768338 79.81034749 134.78768338 82 138 C82.3403125 137.14921875 82.680625 136.2984375 83.03125 135.421875 C83.79027479 133.52431302 84.54934583 131.62676945 85.30908203 129.72949219 C86.84423061 125.89468928 88.37479587 122.05814054 89.8984375 118.21875 C93.6452434 108.79341013 97.46503909 99.40820636 101.47412109 90.09082031 C101.79074707 89.34928711 102.10737305 88.60775391 102.43359375 87.84375 C102.71259521 87.19599609 102.99159668 86.54824219 103.27905273 85.88085938 C105.08133196 81.17894298 104.94016176 79.04770729 103 74.3125 C102.30390625 72.59160156 102.30390625 72.59160156 101.59375 70.8359375 C101.0627688 69.55718002 100.53150617 68.27853937 100 67 C99.42625087 65.59669424 98.85335872 64.19303783 98.28125 62.7890625 C96.53669888 58.51941448 94.77053959 54.25892333 93 50 C92.57847656 48.98292969 92.15695313 47.96585938 91.72265625 46.91796875 C90.94287834 45.04072563 90.15762899 43.16574679 89.3671875 41.29296875 C88.28209368 38.67944278 87.23207161 36.05850477 86.1953125 33.42578125 C80.22299322 18.00918077 80.22299322 18.00918077 69.26171875 5.96484375 C68.14216797 4.99224609 68.14216797 4.99224609 67 4 C67 2.68 67 1.36 67 0 C78.88 0 90.76 0 103 0 C103.495 1.98 103.495 1.98 104 4 C103.01 4.66 102.02 5.32 101 6 C99.23727972 17.58359042 107.29089796 30.77561559 111.75 41.25 C112.35848753 42.68862679 112.96656305 44.12742791 113.57421875 45.56640625 C115.04475064 49.04629321 116.52079035 52.52379339 118 56 C120.03630376 50.56584027 122.04742928 45.12338129 124.02880859 39.66894531 C124.65504547 37.94797458 125.28528224 36.22845154 125.92041016 34.51074219 C131.13219041 21.58262909 131.13219041 21.58262909 131 8 C128.7211176 5.25229728 128.7211176 5.25229728 126 4 C126.33 2.68 126.66 1.36 127 0 C135.25 0 143.5 0 152 0 C152.33 1.32 152.66 2.64 153 4 C152.46890625 4.37511719 151.9378125 4.75023437 151.390625 5.13671875 C141.45164161 12.33704066 137.56449461 21.11419643 133.29296875 32.3203125 C132.96331619 33.18260468 132.63366364 34.04489685 132.29402161 34.93331909 C131.60509633 36.74253525 130.91866041 38.55270114 130.23461914 40.36376953 C129.18588115 43.12926886 128.11751056 45.88668852 127.04882812 48.64453125 C126.3789821 50.41099383 125.71032068 52.17790617 125.04296875 53.9453125 C124.72224899 54.76419952 124.40152924 55.58308655 124.0710907 56.42678833 C121.3593153 63.73320644 122.42449267 68.17496367 125.58984375 75.26953125 C126.122146 76.47609375 126.65444824 77.68265625 127.20288086 78.92578125 C127.48582001 79.5595166 127.76875916 80.19325195 128.06027222 80.84619141 C129.55609092 84.19907331 131.0286299 87.56211309 132.5 90.92578125 C132.94635048 91.94522324 132.94635048 91.94522324 133.40171814 92.98526001 C136.21422347 99.43713539 138.85138566 105.95422921 141.4375 112.5 C144.82123255 121.06446033 148.29061262 129.57094493 152 138 C153.35034466 134.46495137 154.68283176 130.9239477 155.99609375 127.375 C157.07117361 124.47077176 158.16417246 121.57571582 159.28173828 118.6875 C160.68926186 115.04977699 162.06444957 111.40085766 163.4375 107.75 C163.89882324 106.57920898 164.36014648 105.40841797 164.83544922 104.20214844 C168.16343007 95.22557419 168.98755912 87.19812792 165.875 78 C163.41337934 74.06140695 161.16234174 72.96336875 157 71 C157 69.35 157 67.7 157 66 C164.26 66 171.52 66 179 66 C179.33 64.35 179.66 62.7 180 61 C180.4271594 59.69991846 180.88798624 58.4103836 181.3828125 57.13452148 C181.6597998 56.41284286 181.93678711 55.69116425 182.22216797 54.94761658 C182.52010254 54.17986404 182.81803711 53.41211151 183.125 52.62109375 C183.75590431 50.96055072 184.38608935 49.29973426 185.015625 47.63867188 C186.0026123 45.04489857 186.99392287 42.45315813 187.99804688 39.8659668 C193.89446585 25.86960192 193.89446585 25.86960192 195 11 C193.30831134 7.54874243 192.24066961 6.16044641 189 4 C189 2.68 189 1.36 189 0 C197.91 0 206.82 0 216 0 C215.67 1.65 215.34 3.3 215 5 C213.58979157 5.90656256 212.17531422 6.80732338 210.73779297 7.66992188 C203.87917947 12.91939172 200.39221889 21.96403569 197.5 29.8125 C197.12544678 30.79863281 196.75089355 31.78476563 196.36499023 32.80078125 C192.88921084 42.05575403 189.60063652 51.40225964 186.6965332 60.85375977 C186.06094233 62.8122173 185.27935699 64.72174246 184.484375 66.62109375 C183.95488081 70.31474271 184.09022577 70.75599015 186.04296875 73.69140625 C187.06796734 75.00025836 188.11787118 76.28986096 189.1875 77.5625 C189.73833252 78.25504883 190.28916504 78.94759766 190.85668945 79.66113281 C191.99779125 81.09245043 193.14854208 82.51612624 194.30859375 83.93212891 C196.35106593 86.42920445 198.33983537 88.96522674 200.32543945 91.50756836 C201.68323346 93.24454197 203.05019885 94.97400158 204.41796875 96.703125 C206.82891061 99.76526235 209.17211871 102.87410612 211.5 106 C215.20259213 110.96978943 219.00257622 115.85224707 222.84155273 120.71655273 C227.20188295 126.24429923 231.49637778 131.82087343 235.77929688 137.40869141 C237.78657394 140.02537778 239.80016129 142.63720539 241.8125 145.25 C244.55792953 148.81618331 247.29718679 152.38695109 250.02734375 155.96484375 C257.37443014 165.59291407 264.77855008 175.17449954 272.22659302 184.72468567 C274.05443306 187.06983863 275.88028179 189.41652953 277.70556641 191.76367188 C278.32557526 192.56091675 278.94558411 193.35816162 279.5843811 194.17956543 C280.05153534 194.78030884 280.51868958 195.38105225 281 196 C281.04640317 182.59553529 281.08190979 169.19108978 281.10362434 155.78656101 C281.11404783 149.56186136 281.12818092 143.33721679 281.15087891 137.11254883 C281.17265831 131.10196836 281.18457942 125.09144079 281.18975449 119.0808239 C281.19344108 116.79118963 281.20064004 114.50155816 281.21146011 112.21194649 C281.22604264 108.9974359 281.2279751 105.78314202 281.22705078 102.56860352 C281.23424133 101.62848419 281.24143188 100.68836487 281.24884033 99.71975708 C281.2211863 90.79343021 280.23441047 81.85321052 274 75 C271.38113572 73.27514504 268.9280652 72.19107737 266 71 C266.33 69.35 266.66 67.7 267 66 C276.57 66 286.14 66 296 66 C296.33 67.32 296.66 68.64 297 70 C296.05125 70.721875 295.1025 71.44375 294.125 72.1875 C289.3885342 76.18842052 288.85440654 80.14740572 288.21168709 86.21236992 C287.77903486 91.90980941 287.8191492 97.62132481 287.79467773 103.33227539 C287.78508148 104.76215893 287.77507042 106.19203974 287.76467896 107.62191772 C287.73781295 111.47868218 287.71670517 115.33545864 287.69667697 119.19226384 C287.67470351 123.23215587 287.64737077 127.27201167 287.62062073 131.31187439 C287.57084659 138.95077892 287.52585153 146.58970372 287.48259836 154.22864765 C287.43309482 162.93004485 287.37822563 171.63140566 287.32291877 180.33276761 C287.20933349 198.22181124 287.10244403 216.11088927 287 234 C282.61886201 233.36930219 280.98941939 232.31050022 278.2590332 228.74707031 C277.82292725 228.14991211 277.38682129 227.55275391 276.9375 226.9375 C276.46852295 226.31842773 275.9995459 225.69935547 275.51635742 225.06152344 C273.99763038 223.05060936 272.49842564 221.02607392 271 219 C269.96724112 217.62027323 268.93338448 216.24136747 267.8984375 214.86328125 C266.35786771 212.81105084 264.81848673 210.75802791 263.28442383 208.70092773 C259.91892228 204.19284145 256.47436244 199.76314673 252.9140625 195.40625 C251.30448484 193.38278095 249.74570617 191.33712768 248.19921875 189.265625 C244.923208 184.87854826 241.56012324 180.56298556 238.1875 176.25 C233.57672094 170.3373751 229.01525633 164.39535803 224.53515625 158.3828125 C214.06351875 144.36496792 203.41367496 130.46301576 192.625 116.6875 C190.38234187 113.8171122 188.18495781 110.91627594 186.0078125 107.99609375 C185.2041626 106.91871948 185.2041626 106.91871948 184.38427734 105.81958008 C183.31201694 104.37970127 182.2419528 102.93818378 181.17431641 101.49487305 C180.67851074 100.82883057 180.18270508 100.16278809 179.671875 99.4765625 C179.00816895 98.5805835 179.00816895 98.5805835 178.33105469 97.66650391 C176.98684712 95.98353237 175.53293891 94.51025488 174 93 C174.03728417 107.91741396 174.09731644 122.83461003 174.18390274 137.75181961 C174.22359135 144.67927655 174.25603517 151.60662156 174.27099609 158.53417969 C174.28546826 165.22575233 174.32069521 171.91692793 174.36830902 178.60836029 C174.38309063 181.15504684 174.39103915 183.70178296 174.39188385 186.24851227 C174.39426484 189.82913264 174.4214377 193.40880254 174.45410156 196.98925781 C174.4490712 198.03080017 174.44404083 199.07234253 174.43885803 200.14544678 C174.54590849 207.78241043 175.51541704 216.59244723 180.41168594 222.78560257 C183.25544824 225.28192766 186.42038553 226.84188944 190 228 C190 229.32 190 230.64 190 232 C180.1 232 170.2 232 160 232 C160 230.68 160 229.36 160 228 C160.78375 227.38125 161.5675 226.7625 162.375 226.125 C166.59294205 222.71047548 166.9935782 218.80379132 167.54077148 213.63745117 C168.3507756 204.23903099 168.12248057 194.78799058 168.09765625 185.36328125 C168.09578832 183.27149998 168.09436619 181.17971827 168.09336853 179.0879364 C168.08957288 173.615232 168.07976819 168.14255465 168.06866455 162.66986084 C168.05838657 157.07222866 168.05385729 151.47459205 168.04882812 145.87695312 C168.03814295 134.91795694 168.02110248 123.95898073 168 113 C166.5046311 116.90682052 165.01262518 120.81490526 163.52345276 124.72409058 C163.01857195 126.04811505 162.51284284 127.37181642 162.00617981 128.69515991 C157.90006004 139.42250273 154.12791119 150.2291545 150.69506836 161.19189453 C150 163 150 163 148 166 C144.375 166.1875 144.375 166.1875 141 166 C136.74811422 156.90900524 132.9230674 147.66122333 129.125 138.375 C128.53274466 136.93091059 127.94029749 135.48689983 127.34765625 134.04296875 C126.16307918 131.15614551 124.97928133 128.2690048 123.79614258 125.3815918 C121.95637838 120.8927133 120.11436803 116.40476495 118.26953125 111.91796875 C117.85327988 110.90390457 117.85327988 110.90390457 117.42861938 109.86935425 C114.69104318 103.21525317 111.85702699 96.6036045 109 90 C106.65615162 92.34384838 106.00288361 94.2083145 104.8203125 97.30078125 C104.39202148 98.40897217 103.96373047 99.51716309 103.52246094 100.65893555 C103.06129883 101.86461182 102.60013672 103.07028809 102.125 104.3125 C101.1369217 106.86879162 100.14348324 109.42297575 99.1484375 111.9765625 C98.89187378 112.63555038 98.63531006 113.29453827 98.37097168 113.97349548 C95.59281502 121.08440511 92.68267887 128.1391934 89.75 135.1875 C89.24774902 136.39535156 88.74549805 137.60320312 88.22802734 138.84765625 C87.26330203 141.1652917 86.29799643 143.48268572 85.33203125 145.79980469 C83.45927766 150.29908146 81.60279525 154.80497521 79.75 159.3125 C79.3183252 160.36183716 79.3183252 160.36183716 78.87792969 161.43237305 C78.25168885 162.95480669 77.6257936 164.47738247 77 166 C73.6875 166.3125 73.6875 166.3125 70 166 C67.04610757 162.1070688 65.49527235 157.46525923 63.77734375 152.9296875 C63.47576355 152.14435135 63.17418335 151.3590152 62.86346436 150.54988098 C61.88336276 147.99338705 60.91026752 145.43429261 59.9375 142.875 C59.25847318 141.09861716 58.57919068 139.32233204 57.8996582 137.54614258 C53.69737663 126.54425362 49.56652303 115.51749385 45.50219727 104.46386719 C41.50021458 93.59263527 37.32671141 82.78925275 33.15087891 71.98388672 C31.76436927 68.38907959 30.38730467 64.79076786 29.01586914 61.19018555 C28.3827542 59.52819803 27.74783922 57.86689505 27.11108398 56.20629883 C25.37370203 51.66361085 23.67014163 47.11084357 22.00996399 42.53929138 C21.06279668 39.93697375 20.10420068 37.33892759 19.14474487 34.74111938 C18.45924434 32.87179565 17.78905538 30.99687909 17.11938477 29.12182617 C13.88326448 20.38267399 10.07733605 11.98441622 2.5625 6.125 C1.716875 5.42375 0.87125 4.7225 0 4 C0 2.68 0 1.36 0 0 Z " fill="#AA9989" transform="translate(95,126)"/>
</svg>
